-
http:// www. Speed. Cd       
http:// www. Speed. Cd       the fast  and The Hottest Private Tracker on the net

Please Seed back to make the speed Faster!!!

and don't forget to visit      ...... www. Speed. Cd..........
-[img]http://img858.imageshack.us/img858/8339/littlefockersblurayi.jpg[/img]

[color=blue][size=5][b]Little Fockers 2010 BDRip XVID AC3 HQ Hive-CM8[/b][/size][/color]



[b]Thx Hive

CM8 Doing It Right The First Time :D

Why download a touched up rip of a rip BRrip
Get the real deal BDRip

Enjoy

Source Bluray

Video: 720x384 @bitrate 1900 2pass
Audio: DTS to AC3 5.1 @448
Sample: yes included
Subs: yes english in srt /subs[/b]


[url]http://www.imdb.com/title/tt0970866/[/url]


General
Complete name                    : Little.Fockers.2010.BDRip.XVID.AC3.HQ.Hive-CM8.avi
Format                           : AVI
Format/Info                      : Audio Video Interleave
File size                        : 1.61 GiB
Duration                         : 1h 37mn
Overall bit rate                 : 2 355 Kbps
Writing application              : Nandub v1.0rc2
Writing library                  : Nandub build 1853/release

Video
ID                               : 0
Format                           : MPEG-4 Visual
Format profile                   : Advanced Simple@L5
Format settings, BVOP            : Yes
Format settings, QPel            : Yes
Format settings, GMC             : No warppoints
Format settings, Matrix          : Default (H.263)
Muxing mode                      : Packed bitstream
Codec ID                         : XVID
Codec ID/Hint                    : XviD
Duration                         : 1h 37mn
Bit rate                         : 1 898 Kbps
Width                            : 720 pixels
Height                           : 384 pixels
Display aspect ratio             : 1.850
Frame rate                       : 23.976 fps
Color space                      : YUV
Chroma subsampling               : 4:2:0
Bit depth                        : 8 bits
Scan type                        : Progressive
Bits/(Pixel*Frame)               : 0.286
Stream size                      : 1.29 GiB (81%)
Writing library                  : XviD 1.2.1 (UTC 2008-12-04)

Audio
ID                               : 1
Format                           : AC-3
Format/Info                      : Audio Coding 3
Mode extension                   : CM (complete main)
Codec ID                         : 2000
Duration                         : 1h 37mn
Bit rate mode                    : Constant
Bit rate                         : 448 Kbps
Channel(s)                       : 6 channels
Channel positions                : Front: L C R, Side: L R, LFE
Sampling rate                    : 48.0 KHz
Bit depth                        : 16 bits
Stream size                      : 313 MiB (19%)
Alignment                        : Split accross interleaves
Interleave, duration             : 42 ms (1.00 video frame)
Interleave, preload duration     : 500 ms


Robert De Niro        ... Jack Byrnes
Ben Stiller           ... Greg Focker
Owen Wilson           ... Kevin Rawley
Dustin Hoffman        ... Bernie Focker
Erika Jensen          ... Party Parent
Barbra Streisand      ... Roz Focker
Blythe Danner         ... Dina Byrnes
Teri Polo             ... Pam Focker
Jessica Alba          ... Andi Garcia



Family-patriarch Jack Byrnes wants to appoint a successor. Does his son-in-law, 
the "male nurse", Greg Focker have what it takes?  


[img]http://img269.imageshack.us/img269/7849/70699311.png[/img]
[img]http://img683.imageshack.us/img683/3492/lliq.png[/img]
[img]http://img18.imageshack.us/img18/1664/llili.png[/img]
[img]http://img863.imageshack.us/img863/3481/llilliili.png[/img]
[img]http://img713.imageshack.us/img713/5872/llilliilliili.png[/img]
[img]http://img717.imageshack.us/img717/9122/llilliilliliili.png[/img]
[img]http://img843.imageshack.us/img843/9137/llliili.png[/img]
[img]http://img84.imageshack.us/img84/7715/llliilliili.png[/img]



ViSiON,LUSi,,MAGNET,CLASSiFiED,THC,T0XiCiNK,IMAGiNE,WBZ,FLAWL3SS,NOVA
Vik,Rapeseed,D2U,SAFC,goldadvance,MEMORY100,KaN1vE,Unevano,Pinnz,Wayne,Mr Hive
and all P2P groups 
Great Work Guys :D

CM8@hushmail.com